<svg aria-labelledby="react-aria-0-201 react-aria-0-202" class="Icon_icon__JOCyo" viewBox="0 0 22 22" aria-hidden="true" xmlns="http://www.w3.org/2000/svg">
    <path d="m21.463 19.238.036-.035-.036-.036-4.448-4.448a9.15 9.15 0 0 0 1.715-5.332c.02-5.041-4.09-9.13-9.13-9.13-5.04 0-9.13 4.09-9.13 9.13 0 5.04 4.09 9.13 9.13 9.13 1.9 0 3.78-.615 5.332-1.715l4.428 4.427.035.035.035-.034.633-.616.363-.362v-.001l.003-.002.01-.01.034-.033.117-.114.299-.292.371-.363.145-.142.042-.042.012-.01.003-.004-.034-.037.035.036Zm-7.468-5.498-.007.003-.006.006-.012.012a.584.584 0 0 0-.087.105A6.159 6.159 0 0 1 9.6 15.591c-3.4 0-6.185-2.785-6.185-6.205S6.199 3.201 9.6 3.201c3.4 0 6.204 2.785 6.204 6.185 0 1.6-.611 3.109-1.726 4.285-.026.017-.045.037-.055.047h-.001l-.002.003a.4.4 0 0 1-.014.013l-.01.006Z" />
</svg>